<?xml version="1.0" encoding="UTF-8" standalone="no"?>
<svg width="38px" height="38px" viewBox="0 0 38 38" version="1.1" xmlns="http://www.w3.org/2000/svg" xmlns:xlink="http://www.w3.org/1999/xlink">
    <!-- Generator: Sketch 42 (36781) - http://www.bohemiancoding.com/sketch -->
    <title>Youtube Icon 2 Copy 2</title>
    <desc>Created with Sketch.</desc>
    <defs></defs>
    <g id="Page-1" stroke="none" stroke-width="1" fill="none" fill-rule="evenodd">
        <g id="Youtube-Icon-2-Copy-2" fill="#FFFFFF">
            <g id="Group-2">
                <g id="youtube-logo" transform="translate(10.424779, 8.407080)" fill-rule="nonzero">
                    <g id="Group">
                        <path d="M17.1548903,10.9395075 C17.0529806,10.4747017 16.8270554,10.0849153 16.4778571,9.76998285 C16.12837,9.45505037 15.7261341,9.26992253 15.2706956,9.21476486 C13.8263911,9.05727793 11.6480977,8.97857584 8.73556804,8.97857584 C5.82312089,8.97857584 3.64870429,9.05731931 2.21211204,9.21476486 C1.74908499,9.26992253 1.34482819,9.45505037 0.999300384,9.76998285 C0.653855068,10.0850395 0.426197696,10.4748672 0.316245784,10.9395075 C0.112178995,11.853271 0.010104358,13.2315092 0.010104358,15.0745119 C0.010104358,16.9489208 0.112178995,18.3272832 0.316245784,19.2094749 C0.418444148,19.6739496 0.644163132,20.064067 0.993485223,20.3788753 C1.34280731,20.693932 1.74512573,20.8750461 2.20035799,20.9223418 C3.64491,21.0877321 5.82336834,21.1704479 8.73565053,21.1704479 C11.6477265,21.1704479 13.8265973,21.0877321 15.2706131,20.9223418 C15.7260516,20.8750461 16.1263079,20.693932 16.4718357,20.3788753 C16.8173223,20.0641084 17.0449796,19.6739496 17.1548078,19.2094749 C17.3588746,18.2957114 17.461073,16.9174731 17.461073,15.0745119 C17.4610317,13.2000615 17.3588334,11.8216577 17.1548903,10.9395075 Z M4.99134664,12.1329489 L3.7314363,12.1329489 L3.7314363,18.8549017 L2.55401052,18.8549017 L2.55401052,12.1329489 L1.31756704,12.1329489 L1.31756704,11.0224716 L4.99138788,11.0224716 L4.99138788,12.1329489 L4.99134664,12.1329489 Z M8.1705076,18.8549017 L7.12254133,18.8549017 L7.12254133,18.2168024 C6.6986532,18.6974148 6.29814944,18.9375761 5.92135999,18.9375761 C5.5603251,18.9375761 5.33262648,18.791758 5.23855285,18.5004526 C5.17582334,18.3114352 5.144273,18.0238126 5.144273,17.6379572 L5.144273,13.0188233 L6.19223927,13.0188233 L6.19223927,17.3190524 C6.19223927,17.5709653 6.19619853,17.7088801 6.20411705,17.7325487 C6.22766639,17.8979389 6.31002722,17.9806134 6.45140574,17.9806134 C6.66330857,17.9806134 6.88717165,17.8152231 7.12258257,17.4844426 L7.12258257,13.0188233 L8.17054884,13.0188233 L8.17054884,18.8549017 L8.1705076,18.8549017 Z M12.1740192,17.1063664 C12.1740192,17.6812806 12.1387571,18.075329 12.068439,18.2880563 C11.934649,18.7209592 11.6561812,18.9375761 11.2323343,18.9375761 C10.8555036,18.9375761 10.4905507,18.7209592 10.1371044,18.2880563 L10.1371044,18.8550258 L9.08930306,18.8550258 L9.08930306,11.0224716 L10.1371044,11.0224716 L10.1371044,13.5860824 C10.4748374,13.1610001 10.8397078,12.9483141 11.2323343,12.9483141 C11.6561812,12.9483141 11.934649,13.1689034 12.068439,13.6098751 C12.1387158,13.8146164 12.1740192,14.2044441 12.1740192,14.7793997 L12.1740192,17.1063664 Z M16.1539815,16.1377762 L14.0463361,16.1377762 L14.0463361,17.1655792 C14.0463361,17.7090456 14.2267298,17.9806134 14.5878885,17.9806134 C14.8468487,17.9806134 15.0039818,17.8390158 15.0588753,17.5552414 C15.0743824,17.4765393 15.0824246,17.2363779 15.0824246,16.8347573 L16.1539402,16.8347573 L16.1539402,16.9882719 C16.1539402,17.3742928 16.145898,17.6025785 16.1303496,17.6736256 C16.1069653,17.8860219 16.0247694,18.0987079 15.8831022,18.3113938 C15.6005101,18.7288625 15.1762508,18.9375761 14.6111491,18.9375761 C14.0697617,18.9375761 13.6457911,18.736683 13.339526,18.3351865 C13.1119923,18.0437571 12.9982461,17.5869374 12.9982461,16.9647275 L12.9982461,14.9207904 C12.9982461,14.2986218 13.1080331,13.8418021 13.3276482,13.5503727 C13.6339546,13.1487934 14.0539247,12.9479831 14.5878885,12.9479831 C15.1139337,12.9479831 15.5302745,13.1487934 15.8360035,13.5503727 C16.0482363,13.8418021 16.1539815,14.2986218 16.1539815,14.9207904 L16.1539815,16.1377762 L16.1539815,16.1377762 Z" id="Shape"></path>
                        <path d="M10.6666552,13.9049872 C10.486014,13.9049872 10.3095796,13.9919237 10.1368157,14.164969 L10.1368157,17.7207972 C10.3095383,17.894008 10.486014,17.9806134 10.6666552,17.9806134 C10.9726317,17.9806134 11.1260942,17.7169489 11.1260942,17.1890408 L11.1260942,14.6965598 C11.1260529,14.1687758 10.9729616,13.9049872 10.6666552,13.9049872 Z" id="Shape"></path>
                        <path d="M14.5761757,13.9049872 C14.2229355,13.9049872 14.0463361,14.1729136 14.0463361,14.7081458 L14.0463361,15.2516122 L15.105974,15.2516122 L15.105974,14.7081458 C15.105974,14.172624 14.929292,13.9049872 14.5761757,13.9049872 Z" id="Shape"></path>
                        <path d="M4.30870446,4.71372542 L4.30870446,7.91539422 L5.48613024,7.91539422 L5.48613024,4.71372542 L6.91067975,0 L5.70966338,0 L4.90915078,3.10707733 L4.07304608,0 L2.82497228,0 C3.04479362,0.661643736 3.29991835,1.39797584 3.59038771,2.20924457 C3.95938237,3.29605337 4.19867006,4.13103205 4.30870446,4.71372542 Z" id="Shape"></path>
                        <path d="M8.48848556,7.99811003 C9.03016163,7.99811003 9.44609,7.79725833 9.73655936,7.39559631 C9.95646318,7.10416686 10.0662501,6.63944386 10.0662501,6.00159282 L10.0662501,3.93406993 C10.0662501,3.30408082 9.95617449,2.84320603 9.73655936,2.55177658 C9.44609,2.15011456 9.03016163,1.94926286 8.48848556,1.94926286 C7.96239906,1.94926286 7.55022374,2.15011456 7.25204208,2.55177658 C7.03234446,2.84320603 6.9224338,3.30408082 6.9224338,3.93406993 L6.9224338,6.00155144 C6.9224338,6.63154055 7.03222074,7.09630493 7.25204208,7.39555493 C7.55034747,7.79725833 7.96235782,7.99811003 8.48848556,7.99811003 Z M7.98207163,3.72138395 C7.98207163,3.17791748 8.15087627,2.90618425 8.48848556,2.90618425 C8.82609484,2.90618425 8.99473451,3.17791748 8.99473451,3.72138395 L8.99473451,6.20223762 C8.99473451,6.75373154 8.82609484,7.02918885 8.48848556,7.02918885 C8.15087627,7.02918885 7.98207163,6.75356603 7.98207163,6.20223762 L7.98207163,3.72138395 L7.98207163,3.72138395 Z" id="Shape"></path>
                        <path d="M11.7263343,7.99811003 C12.1190845,7.99811003 12.523465,7.75393494 12.9393934,7.265502 L12.9393934,7.91527008 L14.010909,7.91527008 L14.010909,2.02018577 L12.9393934,2.02018577 L12.9393934,6.52122521 C12.7038175,6.85995039 12.4802431,7.02914747 12.2680104,7.02914747 C12.1265906,7.02914747 12.0441473,6.94254207 12.0207217,6.76928989 C12.0128444,6.75352465 12.0088851,6.61556841 12.0088851,6.35575221 L12.0088851,2.02018577 L10.9373695,2.02018577 L10.9373695,6.6749467 C10.9373695,7.07652596 10.9690023,7.37176224 11.0316494,7.5609038 C11.1338065,7.85233324 11.3652994,7.99811003 11.7263343,7.99811003 Z" id="Shape"></path>
                    </g>
                </g>
                <path d="M38,19.1039823 C38,8.68563741 29.5223272,0.207964602 19.1039823,0.207964602 C8.68563741,0.207964602 0.207964602,8.68563741 0.207964602,19.1039823 C0.207964602,29.5223272 8.68563741,38 19.1039823,38 C29.5223272,38 38,29.5223272 38,19.1039823 Z M1.22937096,19.1039823 C1.22937096,9.19634059 9.19634059,1.22937096 19.1039823,1.22937096 C29.011624,1.22937096 36.9785936,9.19634059 36.9785936,19.1039823 C36.9785936,29.011624 29.011624,36.9785936 19.1039823,36.9785936 C9.19634059,36.9785936 1.22937096,29.011624 1.22937096,19.1039823 Z" id="Oval-5"></path>
            </g>
        </g>
    </g>
</svg>