<?xml version="1.0" encoding="UTF-8" standalone="no"?>
<svg width="38px" height="38px" viewBox="0 0 38 38" version="1.1" xmlns="http://www.w3.org/2000/svg" xmlns:xlink="http://www.w3.org/1999/xlink">
    <!-- Generator: Sketch 3.7.2 (28276) - http://www.bohemiancoding.com/sketch -->
    <title>Group</title>
    <desc>Created with Sketch.</desc>
    <defs></defs>
    <g id="Page-1" stroke="none" stroke-width="1" fill="none" fill-rule="evenodd">
        <g id="1-2-Home-F0-1024" transform="translate(-363.000000, -1708.000000)">
            <g id="footer" transform="translate(-128.000000, 1610.000000)">
                <g id="unete" transform="translate(489.000000, 51.000000)">
                    <g id="rrss" transform="translate(3.000000, 48.000000)">
                        <g id="Group">
                            <circle id="Oval-5" stroke="#FFFFFF" cx="18" cy="18" r="18"></circle>
                            <path d="M16.2972891,26.3695586 L16.2972891,17.7504428 L14,17.7504428 L14,14.6465458 L16.2972891,14.6465458 L16.2972891,11.9968113 C16.2972891,9.91364677 17.6542796,8 20.7822114,8 C22.0478221,8 22.9835516,8.12056609 22.9835516,8.12056609 L22.909534,11.0186849 C22.909534,11.0186849 21.9546147,11.0096197 20.9137984,11.0096197 C19.7861712,11.0096197 19.6052391,11.5254251 19.6052391,12.3802658 L19.6052391,14.6465458 L23,14.6465458 L22.8519647,17.7504428 L19.6052391,17.7504428 L19.6052391,26.3695586 L16.2972891,26.3695586 Z" id="Fill-1" fill="#FFFFFF"></path>
                        </g>
                    </g>
                </g>
            </g>
        </g>
    </g>
</svg>