<?xml version="1.0" encoding="UTF-8" standalone="no"?>
<svg width="38px" height="38px" viewBox="0 0 38 38" version="1.1" xmlns="http://www.w3.org/2000/svg" xmlns:xlink="http://www.w3.org/1999/xlink">
    <!-- Generator: Sketch 3.7.2 (28276) - http://www.bohemiancoding.com/sketch -->
    <title>Group</title>
    <desc>Created with Sketch.</desc>
    <defs></defs>
    <g id="Page-1" stroke="none" stroke-width="1" fill="none" fill-rule="evenodd">
        <g id="1-2-Home-F0-1024" transform="translate(-518.000000, -1708.000000)">
            <g id="footer" transform="translate(-128.000000, 1610.000000)">
                <g id="unete" transform="translate(489.000000, 51.000000)">
                    <g id="rrss" transform="translate(3.000000, 48.000000)">
                        <g id="Group" transform="translate(155.000000, 0.000000)">
                            <circle id="Oval-5" stroke="#FFFFFF" cx="18" cy="18" r="18"></circle>
                            <path d="M28,11.7176485 C27.3377538,12.0095418 26.625777,12.2068782 25.87816,12.294035 C26.6415251,11.8418059 27.2258599,11.1231727 27.5010361,10.2672263 C26.7890593,10.6882105 25.9991712,10.9924374 25.1570659,11.1568843 C24.4840448,10.444829 23.5242437,10 22.461666,10 C20.4218815,10 18.769167,11.6403584 18.769167,13.663056 C18.769167,13.9508381 18.8014919,14.2312202 18.864484,14.4984465 C15.7952756,14.3455108 13.0741815,12.8876886 11.2523829,10.6717658 C10.9349358,11.2127963 10.7525901,11.8409837 10.7525901,12.5127495 C10.7525901,13.7839245 11.405719,14.9054527 12.3953585,15.5615961 C11.7903025,15.5418624 11.2208869,15.3774155 10.7235806,15.1027891 L10.7235806,15.1496564 C10.7235806,16.9248613 11.9958558,18.404884 13.6850394,18.7420002 C13.3758806,18.8258682 13.0484874,18.8702688 12.7119768,18.8702688 C12.4749275,18.8702688 12.2428512,18.846424 12.0174057,18.8036678 C12.4873601,20.2606679 13.851637,21.318884 15.4670535,21.3484845 C14.2038956,22.331055 12.6116867,22.9164862 10.8810609,22.9164862 C10.5826772,22.9164862 10.2892665,22.9000415 10,22.8663299 C11.6336511,23.9048124 13.5748031,24.5124439 15.6610029,24.5124439 C22.4542064,24.5124439 26.1674264,18.9294697 26.1674264,14.0881513 C26.1674264,13.9302823 26.1641111,13.7707687 26.1558226,13.6153663 C26.8785744,13.0973584 27.5043514,12.4535486 28,11.7176485" id="Fill-4" fill="#FFFFFF"></path>
                        </g>
                    </g>
                </g>
            </g>
        </g>
    </g>
</svg>